<?xml version="1.0" standalone="no"?>
<!DOCTYPE svg PUBLIC "-//W3C//DTD SVG 20010904//EN"
 "http://www.w3.org/TR/2001/REC-SVG-20010904/DTD/svg10.dtd">
<svg version="1.0" xmlns="http://www.w3.org/2000/svg"
 width="1475.000000pt" height="973.000000pt" viewBox="0 0 1475.000000 973.000000"
 preserveAspectRatio="xMidYMid meet">
<metadata>
Created by potrace 1.13, written by Peter Selinger 2001-2015
</metadata>
<g transform="translate(0.000000,973.000000) scale(0.100000,-0.100000)"
fill="#000000" stroke="none">
<path d="M1785 9413 c-73 -22 -127 -64 -192 -150 -79 -106 -98 -138 -122 -210
-80 -237 72 -460 429 -632 87 -42 118 -51 180 -56 149 -12 343 -71 472 -143
172 -95 286 -238 334 -417 18 -70 27 -250 14 -315 -4 -25 -7 -46 -5 -48 6 -7
74 148 98 224 47 149 61 239 61 399 1 83 -2 168 -6 190 -22 120 -31 157 -63
247 -72 201 -196 389 -373 564 -105 104 -230 206 -300 245 -178 98 -395 140
-527 102z"/>
<path d="M12740 9423 c-61 -10 -221 -66 -287 -100 -116 -61 -278 -198 -418
-355 -123 -138 -235 -327 -290 -493 -85 -258 -83 -555 7 -825 26 -79 84 -210
94 -210 3 0 3 8 -1 18 -23 53 -7 325 23 397 76 181 170 286 334 375 133 72
303 121 465 135 116 10 355 139 472 255 173 171 196 369 66 564 -78 117 -129
170 -198 205 -59 31 -76 35 -154 36 -49 1 -99 0 -113 -2z"/>
<path d="M7267 8954 c-1 -1 -60 -5 -132 -8 -222 -11 -353 -26 -535 -60 -114
-21 -139 -26 -170 -31 -101 -16 -368 -98 -442 -136 -12 -6 -52 5 -132 36 -63
25 -119 45 -125 45 -6 0 -19 4 -29 10 -20 11 -250 67 -307 74 -118 15 -169 19
-255 19 -85 0 -126 -3 -236 -17 -90 -13 -232 -58 -305 -99 -24 -13 -60 -33
-80 -44 -135 -72 -307 -263 -397 -443 -26 -52 -47 -97 -48 -100 0 -3 -4 -12
-7 -20 -46 -108 -101 -319 -122 -460 -4 -25 -7 -49 -8 -54 -2 -10 -14 -24 -57
-73 -14 -15 -41 -48 -60 -73 -19 -25 -37 -47 -40 -50 -3 -3 -27 -34 -53 -70
-26 -36 -51 -70 -56 -76 -5 -6 -22 -30 -37 -54 -16 -24 -36 -53 -44 -65 -45
-66 -134 -212 -181 -295 -29 -52 -56 -97 -59 -100 -5 -5 -143 -278 -145 -290
-2 -5 -28 -65 -60 -135 -25 -54 -117 -289 -120 -305 -1 -3 -20 -61 -42 -130
-37 -115 -125 -444 -137 -515 -3 -16 -12 -70 -21 -120 -9 -49 -18 -103 -21
-120 -6 -36 -20 -57 -71 -110 -21 -22 -56 -62 -78 -90 -22 -27 -42 -52 -46
-55 -3 -3 -21 -27 -40 -55 -18 -27 -36 -52 -39 -55 -13 -12 -60 -79 -60 -85 0
-3 -11 -23 -24 -44 -40 -62 -144 -272 -161 -321 -1 -3 -7 -18 -14 -35 -27 -64
-63 -185 -91 -300 -46 -191 -54 -263 -54 -465 1 -145 7 -242 19 -300 3 -14 7
-40 10 -58 7 -51 53 -239 80 -322 123 -388 411 -844 745 -1181 58 -58 148
-129 165 -129 3 0 22 -11 43 -23 132 -83 523 -278 767 -382 61 -26 128 -55
150 -65 91 -40 543 -211 595 -225 8 -2 94 -29 190 -60 237 -75 659 -191 769
-210 19 -3 37 -8 41 -10 3 -2 17 -6 31 -8 13 -3 71 -15 129 -27 58 -13 112
-24 120 -25 8 -1 29 -5 45 -8 56 -12 90 -18 134 -22 24 -2 51 -7 60 -9 16 -5
80 -15 131 -21 14 -2 59 -8 100 -14 110 -17 188 -27 280 -36 25 -2 69 -7 98
-10 28 -3 76 -7 105 -10 49 -5 129 -11 307 -20 41 -3 129 -4 195 -4 181 1 297
7 590 34 41 4 141 15 185 20 14 2 50 6 80 9 30 3 66 8 80 11 14 3 43 7 65 10
38 5 52 7 135 21 52 9 71 12 110 18 19 3 46 8 60 11 14 2 36 7 50 10 14 2 39
7 55 10 48 8 74 13 175 35 52 12 106 23 120 26 14 3 32 7 40 9 8 2 31 7 50 10
100 16 405 99 730 198 264 80 755 267 1005 382 28 12 82 37 120 55 109 50 413
203 485 245 36 20 74 41 85 46 21 9 31 16 105 63 57 37 200 183 282 288 15 19
39 47 53 64 32 36 26 28 120 159 44 61 106 157 140 215 57 100 146 274 145
285 -1 3 6 18 14 33 46 82 132 369 152 502 3 19 7 48 10 64 24 145 24 449 0
576 -3 14 -7 37 -10 53 -21 117 -30 157 -60 258 -50 168 -70 220 -141 364 -66
135 -183 324 -269 435 -28 36 -53 67 -56 70 -3 3 -23 27 -45 55 -22 27 -48 58
-58 68 -10 10 -21 31 -23 45 -3 15 -12 63 -20 107 -9 44 -18 94 -20 110 -19
120 -155 612 -194 700 -5 11 -34 85 -66 165 -67 170 -156 360 -244 520 -35 63
-69 126 -76 140 -44 83 -325 502 -382 568 -58 67 -136 174 -138 189 -2 10 -5
36 -8 58 -10 70 -64 277 -96 370 -81 229 -232 451 -401 588 -134 109 -382 208
-559 224 -124 11 -314 5 -400 -12 -14 -2 -36 -7 -50 -10 -14 -3 -42 -7 -62
-10 -20 -4 -85 -19 -145 -36 -131 -36 -122 -33 -156 -47 -16 -7 -34 -12 -41
-12 -6 0 -16 -4 -22 -8 -5 -5 -32 -18 -61 -29 l-51 -21 -106 39 c-91 34 -321
99 -396 113 -14 2 -59 11 -101 20 -42 9 -98 18 -125 21 -60 5 -136 14 -189 21
-62 9 -110 13 -235 20 -104 6 -399 11 -403 8z m525 -538 c89 -8 170 -17 208
-22 19 -3 51 -7 70 -10 19 -2 42 -6 50 -9 8 -2 29 -7 45 -10 35 -6 60 -11 132
-26 29 -5 56 -11 60 -11 23 -2 269 -91 334 -121 68 -32 100 -42 164 -51 30 -4
105 18 156 46 92 52 338 137 471 163 71 14 318 13 376 -2 211 -54 358 -202
446 -449 36 -102 52 -163 61 -244 3 -25 8 -56 10 -70 3 -14 7 -41 10 -60 16
-101 40 -150 115 -236 84 -97 103 -121 183 -227 383 -511 672 -1148 791 -1747
14 -69 28 -147 31 -175 28 -221 48 -267 175 -400 76 -80 199 -233 223 -277 7
-12 25 -42 40 -65 26 -41 94 -177 136 -275 24 -54 69 -205 77 -257 3 -18 7
-43 10 -54 32 -167 20 -445 -27 -630 -18 -73 -76 -241 -96 -283 -6 -11 -25
-50 -43 -89 -64 -132 -191 -335 -279 -445 -82 -102 -87 -108 -154 -184 -110
-123 -114 -126 -317 -238 -80 -45 -305 -161 -308 -159 -1 0 -46 -19 -100 -45
-53 -25 -106 -49 -117 -54 -11 -5 -47 -21 -80 -36 -140 -62 -644 -258 -695
-269 -8 -2 -78 -25 -154 -50 -240 -79 -788 -229 -911 -249 -16 -3 -41 -7 -55
-10 -40 -10 -140 -28 -217 -41 -84 -13 -99 -16 -113 -20 -8 -2 -40 -7 -70 -11
-30 -4 -66 -8 -80 -10 -107 -16 -279 -36 -420 -50 -379 -36 -729 -35 -1085 2
-27 3 -68 7 -90 9 -44 3 -136 14 -175 20 -14 2 -50 7 -80 11 -90 10 -155 20
-265 39 -96 17 -193 36 -380 76 -77 17 -151 32 -164 35 -320 65 -1124 327
-1418 460 -28 13 -54 24 -57 24 -2 0 -33 13 -68 29 -35 15 -88 39 -118 52
-105 46 -466 227 -554 278 -49 28 -92 51 -96 51 -4 0 -33 27 -66 59 -160 161
-316 362 -421 541 -45 78 -133 254 -133 267 0 3 -7 19 -15 36 -40 88 -84 257
-100 387 -9 66 -9 309 -1 365 3 22 8 57 11 77 12 91 62 267 97 348 23 52 103
215 121 246 26 44 148 220 169 244 13 14 41 48 63 75 22 27 63 72 91 100 28
27 58 64 67 81 14 27 38 130 51 219 12 87 31 190 51 285 16 75 101 375 114
405 5 11 19 52 32 90 12 39 24 75 28 80 3 6 6 15 7 20 1 6 16 40 33 77 17 36
31 69 31 73 0 15 151 328 201 415 122 215 205 345 313 490 39 52 73 97 76 100
3 3 19 23 35 45 35 48 52 68 85 105 92 102 108 138 126 285 6 51 10 72 19 115
3 14 7 35 9 47 10 51 49 179 58 191 6 6 8 12 5 12 -10 0 65 144 101 195 52 74
148 160 211 191 31 15 64 31 74 36 64 32 305 48 402 28 22 -5 56 -12 75 -15
111 -19 278 -75 414 -140 157 -74 202 -75 343 -9 174 81 405 147 623 178 19 2
53 7 75 10 53 8 121 15 225 22 47 3 86 7 87 8 5 5 570 -3 625 -8z"/>
<path d="M5072 8140 c-23 -5 -69 -19 -103 -31 -64 -24 -63 -31 6 -44 22 -5 46
-9 54 -11 42 -8 182 -88 219 -125 44 -43 83 -110 96 -163 7 -28 9 -28 57 -24
67 7 97 36 105 103 9 72 -9 125 -62 184 -66 73 -150 112 -251 117 -43 1 -97
-1 -121 -6z"/>
<path d="M9493 8135 c-102 -31 -203 -121 -224 -199 -17 -63 -7 -133 24 -164
20 -20 36 -26 73 -26 50 -1 47 -4 85 82 42 96 161 185 301 226 31 9 68 17 83
18 23 2 24 4 9 15 -65 48 -264 75 -351 48z"/>
<path d="M5596 7023 c59 -326 355 -694 859 -1068 314 -234 500 -314 604 -260
59 30 66 129 18 256 l-24 64 -65 7 c-373 37 -854 382 -1310 939 -44 54 -83 99
-85 99 -2 0 -1 -17 3 -37z"/>
<path d="M9066 6925 c-146 -182 -359 -400 -541 -555 -76 -64 -295 -220 -309
-220 -3 0 -28 -14 -56 -31 -106 -65 -281 -125 -404 -137 l-69 -7 -24 -64 c-53
-141 -38 -240 38 -263 47 -14 136 0 220 34 65 26 215 122 364 233 447 332 744
677 834 970 20 63 34 135 27 135 -2 0 -38 -43 -80 -95z"/>
<path d="M5630 5773 c-305 -29 -515 -90 -665 -193 -75 -51 -149 -134 -188
-207 -34 -66 -64 -168 -56 -192 3 -7 27 15 54 50 156 195 377 300 600 286 143
-10 346 -80 458 -160 65 -45 262 3 307 75 41 64 9 170 -86 291 l-46 57 -171
-2 c-95 0 -188 -3 -207 -5z"/>
<path d="M8708 5708 c-72 -77 -128 -186 -128 -249 0 -34 19 -76 46 -100 28
-25 111 -50 185 -56 58 -4 71 -2 105 19 170 107 331 158 494 158 196 -1 390
-97 532 -264 85 -100 81 -97 75 -46 -22 187 -172 357 -399 452 -95 40 -260 84
-353 94 -33 3 -69 8 -80 11 -11 3 -116 7 -234 9 l-213 4 -30 -32z"/>
<path d="M7127 5404 c-1 -1 -40 -5 -87 -8 -107 -8 -168 -14 -200 -21 -14 -3
-41 -8 -60 -10 -52 -6 -67 -10 -160 -40 -265 -86 -429 -228 -501 -435 -12 -36
-24 -67 -25 -69 -2 -1 -22 -5 -45 -7 -24 -2 -55 -7 -69 -9 -14 -3 -41 -8 -60
-11 -145 -23 -368 -101 -530 -186 -102 -53 -213 -122 -247 -152 -6 -6 -35 -31
-64 -56 -79 -68 -85 -75 -185 -199 -78 -98 -185 -318 -224 -466 -17 -63 -22
-87 -36 -175 -23 -142 -23 -542 0 -617 3 -10 8 -33 11 -51 32 -188 151 -438
300 -627 36 -47 210 -220 255 -255 18 -14 37 -30 44 -35 6 -6 54 -39 106 -73
114 -76 334 -185 484 -242 110 -40 354 -115 411 -125 17 -2 45 -9 64 -14 18
-6 36 -10 40 -9 3 1 22 -2 41 -5 55 -11 92 -17 130 -23 19 -2 46 -7 60 -9 14
-3 48 -8 75 -10 28 -3 66 -8 85 -11 54 -9 197 -21 365 -30 276 -15 729 0 945
31 14 2 50 6 80 9 30 3 66 8 80 11 14 3 41 8 60 11 53 8 82 13 110 19 14 3 37
7 51 10 169 31 459 120 640 196 123 52 323 162 401 220 25 19 55 41 67 49 48
32 198 175 287 273 41 45 142 204 187 293 48 96 112 276 122 346 4 23 8 45 10
48 24 39 24 494 0 610 -3 14 -8 43 -11 65 -33 251 -198 571 -383 740 -24 22
-60 55 -80 73 -102 93 -322 215 -510 282 -129 46 -295 90 -366 97 -27 2 -61 5
-75 7 -38 3 -47 12 -54 53 -7 47 -56 151 -87 188 -85 100 -154 154 -267 209
-65 32 -203 82 -253 91 -13 3 -37 8 -54 11 -29 7 -40 8 -135 19 -117 14 -185
16 -453 18 -159 1 -289 1 -290 1z m258 -235 c206 2 260 1 325 -3 41 -2 93 -7
115 -10 88 -13 111 -17 127 -22 9 -3 25 -7 37 -9 151 -29 309 -103 392 -185
68 -65 79 -87 114 -211 36 -126 49 -138 150 -144 103 -6 106 -6 260 -45 317
-80 543 -200 734 -391 62 -62 70 -71 122 -144 75 -105 114 -190 164 -360 36
-124 47 -212 47 -395 0 -168 -8 -224 -53 -375 -17 -55 -48 -134 -68 -175 -38
-76 -121 -210 -150 -242 -9 -10 -32 -36 -51 -58 -49 -57 -111 -119 -160 -160
-23 -19 -47 -40 -53 -46 -37 -34 -237 -156 -343 -210 -145 -73 -302 -130 -508
-186 -157 -42 -171 -45 -226 -54 -19 -3 -43 -7 -52 -10 -22 -6 -54 -12 -103
-19 -22 -4 -53 -8 -70 -11 -16 -3 -47 -7 -67 -10 -21 -2 -57 -7 -80 -10 -43
-5 -79 -9 -198 -19 -75 -6 -273 -17 -310 -16 -67 0 -91 0 -165 0 -90 1 -218 7
-315 16 -176 15 -220 20 -280 29 -19 3 -55 8 -80 11 -25 3 -56 7 -70 10 -14 2
-38 7 -55 10 -16 3 -41 7 -55 10 -14 3 -38 8 -55 10 -16 3 -43 10 -60 15 -16
5 -44 12 -62 15 -55 9 -274 74 -373 111 -179 66 -476 228 -546 299 -8 8 -20
15 -24 15 -10 0 -223 210 -250 246 -8 10 -28 40 -45 64 -16 25 -35 50 -41 57
-46 48 -151 305 -175 425 -33 171 -31 408 7 601 8 45 56 180 88 250 56 122
117 207 231 319 92 91 87 87 185 152 93 63 225 129 338 170 65 23 241 72 300
82 12 2 34 6 50 9 15 3 60 7 99 10 40 2 82 10 93 17 23 15 47 60 55 107 34
197 184 329 453 402 85 23 100 26 152 34 89 13 121 16 199 20 46 3 85 6 87 7
1 2 42 2 91 0 48 -2 106 -3 128 -3z"/>
<path d="M7189 4946 c-2 -2 -35 -7 -74 -11 -67 -6 -161 -19 -235 -31 -101 -17
-252 -89 -307 -146 l-25 -27 40 -83 c115 -237 286 -418 464 -490 29 -12 59
-26 66 -31 29 -23 152 -58 217 -64 72 -5 176 13 239 42 17 8 67 27 112 43 45
16 108 46 140 67 133 85 267 248 355 432 l42 87 -39 34 c-108 94 -257 144
-467 157 -51 4 -105 9 -122 11 -36 6 -401 15 -406 10z"/>
<path d="M7100 3874 c-601 -69 -1081 -317 -1283 -665 -59 -101 -82 -197 -81
-334 2 -184 72 -334 234 -496 108 -108 230 -194 381 -266 97 -47 339 -138 339
-128 0 2 12 0 28 -6 15 -6 34 -12 43 -14 9 -2 59 -12 110 -23 155 -33 303 -47
514 -47 269 0 358 10 650 71 11 2 72 20 135 40 392 123 699 349 824 607 131
268 60 569 -189 805 -257 243 -632 398 -1110 457 -102 13 -480 12 -595 -1z"/>
<path d="M949 7965 c-2 -1 -38 -6 -79 -9 -116 -10 -265 -57 -390 -124 -218
-117 -325 -272 -306 -446 3 -33 9 -86 12 -116 24 -242 156 -404 369 -454 68
-15 246 -16 318 -2 15 3 37 8 50 10 129 23 295 83 347 127 161 133 384 242
575 282 103 22 281 15 370 -13 177 -56 325 -169 462 -355 l23 -30 -16 55 c-50
171 -166 387 -284 529 -186 224 -430 386 -705 469 -108 33 -131 38 -245 57
-25 4 -54 9 -65 12 -24 6 -431 14 -436 8z"/>
<path d="M13429 7965 c-2 -1 -35 -6 -74 -10 -177 -17 -470 -103 -565 -165 -8
-6 -26 -15 -38 -20 -13 -6 -58 -33 -100 -61 -296 -198 -503 -483 -613 -843
-10 -33 -11 -34 58 54 208 266 483 374 794 310 188 -39 395 -139 555 -268 69
-56 171 -95 345 -133 107 -23 295 -32 369 -17 222 45 361 212 385 463 3 33 8
86 11 117 23 217 -165 413 -506 524 -41 14 -106 30 -145 36 -64 9 -468 21
-476 13z"/>
<path d="M2115 6520 c-205 -47 -382 -152 -556 -332 -70 -72 -96 -107 -132
-181 -54 -111 -67 -162 -63 -248 2 -49 9 -75 30 -109 34 -54 136 -137 208
-168 107 -46 232 -11 333 92 82 85 175 237 175 288 0 43 41 172 81 255 72 151
195 255 334 283 66 14 169 14 228 1 20 -5 37 -7 37 -4 0 11 -196 95 -266 114
-112 30 -301 34 -409 9z"/>
<path d="M12260 6523 c-110 -23 -284 -92 -315 -125 -7 -7 -7 -9 0 -6 30 17
187 24 248 13 216 -41 373 -238 427 -535 17 -93 123 -259 209 -328 143 -115
271 -108 423 22 90 77 112 117 115 209 3 138 -71 290 -210 430 -176 176 -353
278 -559 320 -84 18 -253 18 -338 0z"/>
</g>
</svg>
